<svg xmlns="http://www.w3.org/2000/svg" viewBox="0 0 388.6 349.5">
  <defs/>
  <defs>
    <style>
      .cls-1{fill:#f44c00}
    </style>
  </defs>
  <g id="Layer_2" data-name="Layer 2">
    <g id="Layer_1-2" data-name="Layer 1">
      <path class="cls-1" d="M388.6 41.8a40.6 40.6 0 00-81.2 0v124l75.2 121.9a40.48 40.48 0 016 20.6V41.8z"/>
      <path d="M211 12.2l.4.4a37.11 37.11 0 016.3 7.9l3.2 5.2A40.41 40.41 0 00183.1 0H40.7a40.6 40.6 0 10-.1 81.2h119.1l-11.2-18.1A40.64 40.64 0 01208.4 10m-37.8-7.6c.5-.2 1.1-.3 1.6-.5a14.24 14.24 0 01-1.6.5zm-1.8.6c.1 0 .1 0 .2-.1a.31.31 0 01-.2.1z" fill="#f43300"/>
      <path d="M195 138.3a39.38 39.38 0 00-11.9-1.7H40.7a40.6 40.6 0 000 81.2h142.5a40.66 40.66 0 0040-33.7z" fill="#c91500"/>
      <path d="M211.4 12.6l-.4-.4a40.65 40.65 0 00-62.5 50.9l11.2 18.1 35.2 57.1c.1 0 .3.1.4.1-.1 0-.2-.1-.3-.1l28.2 45.8V41.2c0-16.1-4.2-21-11.8-28.6z" fill="#ff4d00"/>
      <path d="M388.5 308.4v2.4a5.28 5.28 0 01-.1 1.3 3.75 3.75 0 00-.1 1c-.1.7-.2 1.4-.3 2 0 .3-.1.5-.1.8l-.1.6c-.1.8-.3 1.6-.5 2.5l-.3 1.2a5.64 5.64 0 01-.4 1.2v.1c-.1.4-.3.8-.4 1.2-.3.7-.5 1.4-.8 2.1-.2.5-.4 1-.6 1.4s-.3.7-.5 1.1c-.5.9-1 1.9-1.5 2.8-.3.6-.7 1.1-1 1.6a5.55 5.55 0 01-.6.8 5.55 5.55 0 00-.6.8l-.6.8c-.8 1-1.7 2-2.5 2.9a4.62 4.62 0 01-.7.7l-.7.7a17.38 17.38 0 01-1.5 1.3 23.4 23.4 0 01-3.1 2.4c-.7.5-1.4 1-2.2 1.5a7.46 7.46 0 01-1.2.7 19.65 19.65 0 01-2.5 1.3l-1.4.6a6.94 6.94 0 01-1.3.5c-.4.2-.9.3-1.3.5s-.9.3-1.3.5a21.36 21.36 0 01-3.4.9l-.7.1c-.7.1-1.3.3-2 .4a3.4 3.4 0 01-1 .1c-.6.1-1.2.1-1.8.2h-.6c-.4 0-.9.1-1.4.1h-2.6a5.7 5.7 0 01-1.3-.1l-1.2-.1-2.6-.3a42.17 42.17 0 01-9.8-2.8c-.4-.2-.8-.3-1.2-.5a21.16 21.16 0 01-2.1-1.1c-.7-.4-1.2-.7-1.8-1l-.7-.5a19.92 19.92 0 01-3.3-2.4 33.29 33.29 0 01-2.8-2.5 4.62 4.62 0 01-.7-.7 4.62 4.62 0 00-.7-.7 17.38 17.38 0 01-1.3-1.5 23.4 23.4 0 01-2.4-3.1c-.5-.7-1-1.4-1.5-2.2l-.3-.5a40.2 40.2 0 01-5.7-20.8V165.8l75.2 121.9a41 41 0 015.9 20.7z" fill="#c92a00"/>
      <path class="cls-1" d="M221 25.7l86.4 140.1V309a40.2 40.2 0 005.7 20.8L223.2 184z"/>
    </g>
  </g>
</svg>